<svg id="Layer_1" data-name="Layer 1" xmlns="http://www.w3.org/2000/svg" viewBox="0 0 42.52 42.52"><defs><style>.cls-1{fill:none;stroke:#8ec2e6;stroke-linecap:round;stroke-linejoin:round;}</style></defs><path class="cls-1" d="M31.86,21.13a6.93,6.93,0,0,0-.16-1.45H10.82a6.93,6.93,0,0,0-.16,1.45c0,3.43,2.36,6.39,5.8,7.85v2.76h9.8V28.9C29.59,27.41,31.86,24.49,31.86,21.13Z"/><path class="cls-1" d="M18.06,10.78s-1.8,1.23,0,3a2.16,2.16,0,0,1,0,3.33"/><path class="cls-1" d="M21.26,10.78s-1.8,1.23,0,3a2.16,2.16,0,0,1,0,3.33"/><path class="cls-1" d="M24.46,10.78s-1.8,1.23,0,3a2.16,2.16,0,0,1,0,3.33"/></svg>