<svg id="Layer_1" data-name="Layer 1" xmlns="http://www.w3.org/2000/svg" viewBox="0 0 42.52 42.52"><defs><style>.cls-1{fill:none;stroke:#8ec2e6;stroke-linecap:round;stroke-linejoin:round;}</style></defs><path class="cls-1" d="M25,13.39a5,5,0,0,0-2.51-3V9.16a1.23,1.23,0,1,0-2.45,0v1.19a5,5,0,0,0-2.46,2.92"/><path class="cls-1" d="M25.86,17.27A3.93,3.93,0,0,1,28,20.76v9.9a3.91,3.91,0,0,1-3.92,3.92h-5.6a3.92,3.92,0,0,1-3.93-3.92v-9.9a3.94,3.94,0,0,1,2.13-3.49"/><rect class="cls-1" x="15.96" y="13.38" width="10.6" height="4.15" rx="1.56"/><line class="cls-1" x1="18.61" y1="21.76" x2="23.91" y2="21.76"/><line class="cls-1" x1="18.61" y1="25.93" x2="23.91" y2="25.93"/><line class="cls-1" x1="18.61" y1="30.1" x2="23.91" y2="30.1"/></svg>