<svg id="Layer_1" data-name="Layer 1" xmlns="http://www.w3.org/2000/svg" viewBox="0 0 42.52 42.52"><defs><style>.cls-1{fill:none;stroke:#8ec2e6;stroke-linecap:round;stroke-linejoin:round;}</style></defs><path class="cls-1" d="M28.54,22.37a5.23,5.23,0,1,1-7.06,7.07"/><line class="cls-1" x1="25.03" y1="27.3" x2="30.89" y2="27.3"/><path class="cls-1" d="M16.21,19,12.4,22.82a4.63,4.63,0,0,0,0,6.55h0a4.63,4.63,0,0,0,6.55,0l5.63-5.63-6.73-6.17-.1-.1,5.82-5.82a4.63,4.63,0,0,1,6.55,0h0a4.63,4.63,0,0,1,0,6.55L26,22.37"/><line class="cls-1" x1="20.75" y1="17.5" x2="24.91" y2="13.34"/></svg>