<svg id="Layer_1" data-name="Layer 1" xmlns="http://www.w3.org/2000/svg" viewBox="0 0 42.52 42.52"><defs><style>.cls-1{fill:none;stroke:#8ec2e6;stroke-linecap:round;stroke-linejoin:round;}</style></defs><polyline class="cls-1" points="18.96 7.39 14.69 7.39 14.69 4.86 27.83 4.86 27.83 7.39 23.1 7.39"/><rect class="cls-1" x="13.99" y="13.33" width="14.53" height="24.33"/><line class="cls-1" x1="14.69" y1="7.39" x2="13.99" y2="13.33"/><line class="cls-1" x1="27.83" y1="7.39" x2="28.53" y2="13.33"/><path class="cls-1" d="M23.65,9.37a2,2,0,0,1,.14.72,2.59,2.59,0,0,1-2.8,2.3,2.59,2.59,0,0,1-2.8-2.3,2,2,0,0,1,.14-.72"/><path class="cls-1" d="M18.85,7.48A3.35,3.35,0,0,1,21,6.78c1.55,0,2.8.88,2.8,2s-1.25,2-2.8,2-2.8-.89-2.8-2a1.69,1.69,0,0,1,.66-1.27"/></svg>