<svg id="Layer_1" data-name="Layer 1" xmlns="http://www.w3.org/2000/svg" viewBox="0 0 48.19 48.19"><defs><style>.cls-1{fill:#194E91;}</style></defs><path class="cls-1" d="M30.36,11.88A3.38,3.38,0,0,0,27.9,9a4,4,0,0,0-3.81,1.05A4,4,0,0,0,20.29,9a3.38,3.38,0,0,0-2.46,2.85c-.47,3.2,2.8,6,6.12,7l.14,0,.15,0C27.56,17.88,30.83,15.08,30.36,11.88Zm-6.27,6c-2.9-.93-5.64-3.35-5.27-5.86a2.37,2.37,0,0,1,1.73-2,2.44,2.44,0,0,1,.71-.1,3.2,3.2,0,0,1,2.45,1.23.52.52,0,0,0,.77,0A3.08,3.08,0,0,1,27.64,10a2.37,2.37,0,0,1,1.73,2C29.74,14.53,27,17,24.09,17.88Z"/><path class="cls-1" d="M19.12,23.94s0,0,0,0V18.39A3.25,3.25,0,0,0,16.52,15a3.44,3.44,0,0,0-1.23-2.28,3.2,3.2,0,0,0-1.92-.61A3.62,3.62,0,0,0,9.49,9.94a1.18,1.18,0,0,0-1.1,1.18V23.56a1.25,1.25,0,0,0,.13.53L13,33v5.84a.51.51,0,0,0,.5.5.5.5,0,0,0,.5-.5V33a1.18,1.18,0,0,0-.12-.53L9.39,23.56V11.12a.18.18,0,0,1,.16-.18,2.64,2.64,0,0,1,3,1.78v8.82a1.08,1.08,0,0,0-.48.57,1.21,1.21,0,0,0,.14,1.09c.46.66,1,1.36,1.45,2.06L15.55,28a.5.5,0,0,0,.82-.56c-.58-.85-1.25-1.8-1.92-2.75L13,22.63a.18.18,0,0,1,0-.17.14.14,0,0,1,.1-.1,4.23,4.23,0,0,1,1.17-.12,4,4,0,0,1,1.63.4h0a8,8,0,0,1,2,1.45,9.23,9.23,0,0,1,2.44,3.74v11a.5.5,0,0,0,.5.5.51.51,0,0,0,.5-.5V27.84a1.29,1.29,0,0,0-.07-.4A10.31,10.31,0,0,0,19.12,23.94Zm-5.59-2.67V13.14a2.13,2.13,0,0,1,1.16.4,2.65,2.65,0,0,1,.9,1.91v6a5,5,0,0,0-2.06-.19Zm3.06.61v-5.8a2.22,2.22,0,0,1,1.54,2.31V23A8.69,8.69,0,0,0,16.59,21.88Z"/><path class="cls-1" d="M38.7,9.94a3.6,3.6,0,0,0-3.88,2.19,3.18,3.18,0,0,0-1.92.61A3.47,3.47,0,0,0,31.67,15a3.26,3.26,0,0,0-2.61,3.38V23.9s0,0,0,0a10.36,10.36,0,0,0-2.14,3.49,1.14,1.14,0,0,0-.07.41v11a.5.5,0,1,0,1,0v-11A9.3,9.3,0,0,1,30.3,24.1a8,8,0,0,1,2-1.45h0a4,4,0,0,1,1.63-.4,4.23,4.23,0,0,1,1.17.12.14.14,0,0,1,.1.1.18.18,0,0,1,0,.17l-1.43,2c-.67.95-1.34,1.91-1.93,2.77a.5.5,0,1,0,.82.56l1.93-2.76,1.43-2a1.21,1.21,0,0,0,.14-1.09,1.13,1.13,0,0,0-.48-.57V12.72a2.64,2.64,0,0,1,3-1.78.17.17,0,0,1,.15.18V23.64l-4.46,8.78a1.19,1.19,0,0,0-.13.53v5.84a.51.51,0,0,0,.5.5.5.5,0,0,0,.5-.5l0-5.92,4.46-8.78a1.24,1.24,0,0,0,.12-.53V11.12A1.17,1.17,0,0,0,38.7,9.94ZM30.06,23V18.39a2.21,2.21,0,0,1,1.53-2.31v5.8A9,9,0,0,0,30.06,23Zm3.83-1.73a4.84,4.84,0,0,0-1.3.22v-6a2.67,2.67,0,0,1,.9-1.95,2.1,2.1,0,0,1,1.17-.41v8.13A4.91,4.91,0,0,0,33.89,21.24Z"/></svg>