<svg id="Layer_1" data-name="Layer 1" xmlns="http://www.w3.org/2000/svg" viewBox="0 0 48.19 48.19"><defs><style>.cls-1{fill:#194E91;}</style></defs><path class="cls-1" d="M37.06,31.78a.89.89,0,0,0-1,.35,8.09,8.09,0,0,1-2.35,2A17.67,17.67,0,0,1,28,36.47a4.17,4.17,0,0,0,.25-1.38,4.1,4.1,0,1,0-8.2,0,3.94,3.94,0,0,0,.26,1.38,17.67,17.67,0,0,1-5.68-2.29,8,8,0,0,1-2.35-2,.89.89,0,0,0-1-.35.85.85,0,0,0-.61.83c0,2,.92,5.78,7.24,8.14v2.58a.5.5,0,0,0,1,0V40.66a.89.89,0,0,0-.57-.82c-5.41-2-6.53-5-6.66-6.83a9.78,9.78,0,0,0,2.41,2A18.8,18.8,0,0,0,21,37.63a4.05,4.05,0,0,0,6.39,0A18.87,18.87,0,0,0,34.25,35a9.78,9.78,0,0,0,2.41-2c-.13,1.84-1.25,4.83-6.66,6.83a.89.89,0,0,0-.57.82v2.67a.5.5,0,0,0,.5.5.5.5,0,0,0,.5-.5V40.75c6.32-2.36,7.25-6.11,7.24-8.14A.85.85,0,0,0,37.06,31.78ZM24.19,38.19a3.1,3.1,0,1,1,3.1-3.1A3.1,3.1,0,0,1,24.19,38.19Z"/><path class="cls-1" d="M45.7,16.29a.51.51,0,0,0-.69-.18l-2.32,1.34a.85.85,0,0,0-.41.9c1,5.68-1.06,8.15-2.59,9.18a9.92,9.92,0,0,0,.54-3.09,18.67,18.67,0,0,0-1.18-7.24,4,4,0,0,0,.17-.44,4.1,4.1,0,0,0-2.9-5c-.16,0-.31-.05-.46-.08A18.82,18.82,0,0,0,30.18,7,9.61,9.61,0,0,0,27.23,6c1.65-.82,4.8-1.34,9.24,2.35a.88.88,0,0,0,1,.08l2.32-1.33A.51.51,0,0,0,40,6.36a.49.49,0,0,0-.68-.18L37,7.47c-5.2-4.29-8.92-3.22-10.67-2.2a.85.85,0,0,0-.41.94.88.88,0,0,0,.8.69,7.87,7.87,0,0,1,2.95,1,17.62,17.62,0,0,1,4.82,3.77,3.94,3.94,0,0,0-1.32.47,4.1,4.1,0,0,0,1,7.51,4.09,4.09,0,0,0,3.11-.41,4.12,4.12,0,0,0,1.08-.91,17.58,17.58,0,0,1,.85,6.06,8,8,0,0,1-.6,3.06.9.9,0,0,0,.19,1,.87.87,0,0,0,.58.23.92.92,0,0,0,.45-.12c1.76-1,4.54-3.69,3.43-10.34L45.51,17A.52.52,0,0,0,45.7,16.29Zm-8.9,2.09a3.1,3.1,0,0,1-4.23-1.13A3.09,3.09,0,0,1,33.71,13a3,3,0,0,1,1.54-.42,2.82,2.82,0,0,1,.81.11,3,3,0,0,1,1.88,1.44,3.11,3.11,0,0,1,.31,2.35A3,3,0,0,1,36.8,18.38Z"/><path class="cls-1" d="M10.88,19.37a4.14,4.14,0,0,0,2,.55A4.29,4.29,0,0,0,14,19.78a4.1,4.1,0,0,0,2.49-1.91A4.11,4.11,0,0,0,15,12.26a4.43,4.43,0,0,0-1.32-.47A17.81,17.81,0,0,1,18.48,8a8.24,8.24,0,0,1,2.95-1,.87.87,0,0,0,.8-.68.85.85,0,0,0-.41-.94c-1.76-1-5.47-2.09-10.67,2.2L8.91,6.29a.5.5,0,0,0-.68.19.49.49,0,0,0,.18.68L10.73,8.5a.88.88,0,0,0,1-.09C16.16,4.72,19.31,5.25,21,6.06A9.93,9.93,0,0,0,18,7.14a18.67,18.67,0,0,0-5.68,4.64,2.46,2.46,0,0,0-.46.08,4.06,4.06,0,0,0-2.73,5.45A18.7,18.7,0,0,0,8,24.55a10,10,0,0,0,.54,3.1c-1.53-1-3.56-3.5-2.59-9.18a.88.88,0,0,0-.42-.91L3.18,16.22a.52.52,0,0,0-.69.19.5.5,0,0,0,.19.68l2.23,1.29C3.8,25,6.58,27.72,8.34,28.72a.91.91,0,0,0,.44.12.85.85,0,0,0,.59-.23.88.88,0,0,0,.19-1A8.07,8.07,0,0,1,9,24.52a17.6,17.6,0,0,1,.85-6.07A4.14,4.14,0,0,0,10.88,19.37Zm-.63-5.1a3.08,3.08,0,0,1,1.88-1.45,3.22,3.22,0,0,1,.81-.11,3.13,3.13,0,0,1,1.54.42A3.08,3.08,0,0,1,15.93,15a3.14,3.14,0,0,1-.31,2.36,3.09,3.09,0,0,1-1.88,1.44,3.13,3.13,0,0,1-2.36-.31A3.09,3.09,0,0,1,10.25,14.27Z"/></svg>