<svg id="Layer_1" data-name="Layer 1" xmlns="http://www.w3.org/2000/svg" viewBox="0 0 48.19 48.19"><defs><style>.cls-1{fill:#194E91;}</style></defs><path class="cls-1" d="M36.79,29.35c-.11-3.47-1.85-6.25-5.17-8.25a14.41,14.41,0,0,0-2.55-1.18,7.33,7.33,0,0,0,2.42-5.45,7.4,7.4,0,1,0-12.38,5.45,15.1,15.1,0,0,0-2.55,1.18c-3.31,2-5,4.78-5.17,8.25-.12,3.78.6,6.82,2.14,9a6.24,6.24,0,0,0,3.83,2.73,2.61,2.61,0,0,0,2.06-.69c1.47-1.36.59-3.23,0-4.47l-.05-.11A11.86,11.86,0,0,1,18,31.23c-.07-3.07,2.75-4.47,5.41-4.74.23,0,.45,0,.67,0h0a6.3,6.3,0,0,1,4.55,1.7A4.85,4.85,0,0,1,30,31.75a9.92,9.92,0,0,1-1,3.92l-.2.43c-.61,1.3-1.45,3.06.05,4.39a2.42,2.42,0,0,0,1.65.63h.22a5.87,5.87,0,0,0,3.58-2.2C36.08,36.7,36.93,33.48,36.79,29.35ZM17.69,14.47a6.4,6.4,0,1,1,6.4,6.39A6.42,6.42,0,0,1,17.69,14.47ZM33.48,38.28a4.87,4.87,0,0,1-2.89,1.84,1.46,1.46,0,0,1-1.13-.38c-.86-.77-.46-1.81.2-3.21l.21-.45a11.1,11.1,0,0,0,1.1-4.3,5.84,5.84,0,0,0-1.62-4.33,7.24,7.24,0,0,0-5.26-2l-.77,0c-3,.31-6.39,2-6.31,5.77a12.59,12.59,0,0,0,1.46,5l.06.11c.67,1.44,1.08,2.51.21,3.31a1.58,1.58,0,0,1-1.28.43,5.31,5.31,0,0,1-3.11-2.31c-1.42-2-2.07-4.86-2-8.42A8.74,8.74,0,0,1,17.08,22a13.08,13.08,0,0,1,3-1.31,7.4,7.4,0,0,0,8.11,0,13.28,13.28,0,0,1,3,1.31c3,1.81,4.58,4.31,4.68,7.42C35.92,33.26,35.15,36.26,33.48,38.28Z"/><path class="cls-1" d="M28.89,31A2.61,2.61,0,0,0,27,28.8a3.12,3.12,0,0,0-2.88.73,3.09,3.09,0,0,0-2.87-.73A2.61,2.61,0,0,0,19.3,31c-.37,2.45,2.12,4.6,4.65,5.37l.14,0,.15,0C26.77,35.63,29.26,33.48,28.89,31Zm-4.8,4.36C22,34.7,20,33,20.29,31.17a1.63,1.63,0,0,1,1.19-1.41,2.14,2.14,0,0,1,.5-.06,2.27,2.27,0,0,1,1.73.87.52.52,0,0,0,.77,0,2.19,2.19,0,0,1,2.22-.81,1.63,1.63,0,0,1,1.2,1.41C28.17,33,26.2,34.7,24.09,35.39Z"/></svg>